<svg width="27" height="27" viewBox="0 0 27 27" fill="none" xmlns="http://www.w3.org/2000/svg">
<g clip-path="url(#clip0_2101_1170)">
<path d="M9.7583 12.915C9.85986 12.9997 9.97412 13.0716 10.1011 13.1309C10.228 13.1901 10.3677 13.2197 10.52 13.2197C10.6724 13.2197 10.8162 13.1901 10.9517 13.1309C11.0871 13.0716 11.2056 12.9997 11.3071 12.915L15.6235 8.57324C15.7251 8.47168 15.8055 8.35742 15.8647 8.23047C15.924 8.10352 15.9536 7.96387 15.9536 7.81152C15.9536 7.50684 15.8478 7.2487 15.6362 7.03711C15.4246 6.82552 15.1665 6.71973 14.8618 6.71973C14.7095 6.71973 14.5698 6.74935 14.4429 6.80859C14.3159 6.86784 14.2017 6.93978 14.1001 7.02441L10.52 10.6045L9.12354 9.20801C9.02197 9.10645 8.90771 9.02604 8.78076 8.9668C8.65381 8.90755 8.51416 8.87793 8.36182 8.87793C8.05713 8.87793 7.79899 8.98372 7.5874 9.19531C7.37581 9.4069 7.27002 9.66504 7.27002 9.96973C7.27002 10.1221 7.29964 10.2617 7.35889 10.3887C7.41813 10.5156 7.49854 10.6299 7.6001 10.7314L9.7583 12.915ZM21.3618 15.3779H20.27V4.56152H21.3618C21.6665 4.56152 21.9246 4.45573 22.1362 4.24414C22.3478 4.03255 22.4536 3.77441 22.4536 3.46973C22.4536 3.16504 22.3478 2.9069 22.1362 2.69531C21.9246 2.48372 21.6665 2.37793 21.3618 2.37793H1.86182C1.55713 2.37793 1.29899 2.48372 1.0874 2.69531C0.875814 2.9069 0.77002 3.16504 0.77002 3.46973C0.77002 3.77441 0.875814 4.03255 1.0874 4.24414C1.29899 4.45573 1.55713 4.56152 1.86182 4.56152H2.95361V15.3779H1.86182C1.55713 15.3779 1.29899 15.4837 1.0874 15.6953C0.875814 15.9069 0.77002 16.165 0.77002 16.4697C0.77002 16.7744 0.875814 17.0326 1.0874 17.2441C1.29899 17.4557 1.55713 17.5615 1.86182 17.5615H10.52V18.8057L5.59424 22.0557C5.44189 22.1403 5.31917 22.2673 5.22607 22.4365C5.13298 22.6058 5.08643 22.7835 5.08643 22.9697C5.08643 23.2744 5.19222 23.5326 5.40381 23.7441C5.6154 23.9557 5.87354 24.0615 6.17822 24.0615C6.17822 24.0615 6.18669 24.0615 6.20361 24.0615C6.3221 24.0615 6.4279 24.0446 6.521 24.0107C6.6141 23.9769 6.70296 23.9261 6.7876 23.8584L10.52 21.3955V22.9697C10.52 23.2744 10.6258 23.5326 10.8374 23.7441C11.049 23.9557 11.3071 24.0615 11.6118 24.0615C11.9165 24.0615 12.1746 23.9557 12.3862 23.7441C12.5978 23.5326 12.7036 23.2744 12.7036 22.9697V21.3955L16.436 23.8584C16.5207 23.9261 16.6095 23.9769 16.7026 24.0107C16.7957 24.0446 16.9015 24.0615 17.02 24.0615C17.3247 24.0615 17.5828 23.9557 17.7944 23.7441C18.006 23.5326 18.1118 23.2744 18.1118 22.9697C18.1118 22.7835 18.0653 22.61 17.9722 22.4492C17.8791 22.2884 17.7648 22.1657 17.6294 22.0811L12.7036 18.8311V17.5615H21.3618C21.6665 17.5615 21.9246 17.4557 22.1362 17.2441C22.3478 17.0326 22.4536 16.7744 22.4536 16.4697C22.4536 16.165 22.3478 15.9069 22.1362 15.6953C21.9246 15.4837 21.6665 15.3779 21.3618 15.3779ZM18.1118 15.3779H5.11182V4.56152H18.1118V15.3779Z" fill="#5EB9F0"/>
</g>
<defs>
<clipPath id="clip0_2101_1170">
<rect width="26" height="26" fill="white" transform="matrix(1 0 0 -1 0.77002 26.2197)"/>
</clipPath>
</defs>
</svg>
