<svg width="27" height="27" viewBox="0 0 27 27" fill="none" xmlns="http://www.w3.org/2000/svg">
<g clip-path="url(#clip0_2101_1176)">
<path d="M12.8782 13.4482C13.4537 12.9574 13.9065 12.3649 14.2366 11.6709C14.5667 10.9769 14.7317 10.2321 14.7317 9.43652C14.7317 8.6748 14.5878 7.97233 14.3 7.3291C14.0123 6.66895 13.6272 6.09342 13.1448 5.60254C12.6624 5.11165 12.0911 4.72233 11.4309 4.43457C10.7708 4.14681 10.0683 4.00293 9.32349 4.00293C8.56177 4.00293 7.85929 4.14681 7.21606 4.43457C6.55591 4.72233 5.98039 5.11165 5.4895 5.60254C4.99862 6.09342 4.60929 6.66895 4.32153 7.3291C4.03377 7.97233 3.88989 8.6748 3.88989 9.43652C3.88989 10.2321 4.05493 10.9769 4.38501 11.6709C4.71509 12.3649 5.16789 12.9574 5.74341 13.4482C4.98169 13.8037 4.28768 14.2523 3.66138 14.7939C3.03507 15.3356 2.50187 15.945 2.06177 16.6221C1.62166 17.2992 1.27466 18.0355 1.02075 18.8311C0.766846 19.6266 0.639893 20.4645 0.639893 21.3447C0.639893 21.6494 0.745687 21.9076 0.957275 22.1191C1.16886 22.3307 1.427 22.4365 1.73169 22.4365C2.03638 22.4365 2.29452 22.3307 2.5061 22.1191C2.71769 21.9076 2.82349 21.6494 2.82349 21.3447C2.82349 20.4476 2.99276 19.6012 3.3313 18.8057C3.66984 18.027 4.1311 17.3415 4.71509 16.749C5.29907 16.1566 5.98885 15.6911 6.78442 15.3525C7.58 15.014 8.42635 14.8447 9.32349 14.8447C10.2206 14.8447 11.0585 15.014 11.8372 15.3525C12.6327 15.6911 13.3225 16.1566 13.9065 16.749C14.4905 17.3415 14.9602 18.027 15.3157 18.8057C15.6542 19.6012 15.8235 20.4476 15.8235 21.3447C15.8235 21.6494 15.9293 21.9076 16.1409 22.1191C16.3525 22.3307 16.6021 22.4365 16.8899 22.4365C17.1946 22.4365 17.4527 22.3307 17.6643 22.1191C17.8759 21.9076 17.9817 21.6494 17.9817 21.3447C17.9817 20.4645 17.8547 19.6266 17.6008 18.8311C17.3639 18.0355 17.0211 17.2992 16.5725 16.6221C16.1239 15.945 15.595 15.3356 14.9856 14.7939C14.3593 14.2692 13.6822 13.8291 12.9543 13.4736L12.8782 13.4482ZM9.32349 12.6865C8.42635 12.6865 7.6604 12.3691 7.02563 11.7344C6.39087 11.0996 6.07349 10.3337 6.07349 9.43652C6.07349 8.53939 6.39087 7.77344 7.02563 7.13867C7.6604 6.50391 8.42635 6.18652 9.32349 6.18652C10.2206 6.18652 10.9866 6.50391 11.6213 7.13867C12.2561 7.77344 12.5735 8.53939 12.5735 9.43652C12.5735 10.3337 12.2561 11.0996 11.6213 11.7344C10.9866 12.3691 10.2206 12.6865 9.32349 12.6865ZM21.9934 10.1221C21.8918 10.0205 21.7776 9.9401 21.6506 9.88086C21.5237 9.82161 21.384 9.79199 21.2317 9.79199C21.0793 9.79199 20.9397 9.82161 20.8127 9.88086C20.6858 9.9401 20.5715 10.0205 20.47 10.1221L18.2864 12.2803L17.6262 11.5947C17.5247 11.4932 17.4104 11.4128 17.2834 11.3535C17.1565 11.2943 17.0168 11.2646 16.8645 11.2646C16.7122 11.2646 16.5683 11.2943 16.4329 11.3535C16.2974 11.4128 16.179 11.4932 16.0774 11.5947C15.9928 11.6963 15.9208 11.8105 15.8616 11.9375C15.8023 12.0645 15.7727 12.2041 15.7727 12.3564C15.7727 12.5088 15.8023 12.6484 15.8616 12.7754C15.9208 12.9023 15.9928 13.0166 16.0774 13.1182L17.55 14.5654C17.6347 14.667 17.7447 14.7474 17.8801 14.8066C18.0155 14.8659 18.1594 14.8955 18.3118 14.8955C18.4472 14.8955 18.5826 14.8659 18.718 14.8066C18.8534 14.7474 18.9719 14.667 19.0735 14.5654L21.968 11.6709C22.0696 11.5863 22.1542 11.472 22.2219 11.3281C22.2896 11.1842 22.3235 11.0361 22.3235 10.8838C22.3235 10.7314 22.2939 10.5876 22.2346 10.4521C22.1754 10.3167 22.095 10.2067 21.9934 10.1221Z" fill="#5EB9F0"/>
</g>
<defs>
<clipPath id="clip0_2101_1176">
<rect width="26" height="26" fill="white" transform="matrix(1 0 0 -1 0.639893 26.2197)"/>
</clipPath>
</defs>
</svg>
