<svg width="23" height="23" viewBox="0 0 23 23" fill="none" xmlns="http://www.w3.org/2000/svg">
<path d="M21.1118 2.56152H17.8618V1.46973C17.8618 1.16504 17.756 0.9069 17.5444 0.695312C17.3328 0.483725 17.0747 0.37793 16.77 0.37793H5.95361C5.64893 0.37793 5.39079 0.483725 5.1792 0.695312C4.96761 0.9069 4.86182 1.16504 4.86182 1.46973V2.56152H1.61182C1.30713 2.56152 1.04899 2.66732 0.837402 2.87891C0.625814 3.09049 0.52002 3.34017 0.52002 3.62793V6.87793C0.52002 8.07975 0.943197 9.10384 1.78955 9.9502C2.63591 10.7965 3.65999 11.2197 4.86182 11.2197H6.5376C7.01156 11.7445 7.56592 12.1888 8.20068 12.5527C8.83545 12.9167 9.51676 13.1579 10.2446 13.2764H10.27V15.5615H9.20361C8.30648 15.5615 7.54053 15.8789 6.90576 16.5137C6.271 17.1484 5.95361 17.9144 5.95361 18.8115V20.9697C5.95361 21.2744 6.05941 21.5326 6.271 21.7441C6.48258 21.9557 6.73226 22.0615 7.02002 22.0615H15.7036C15.9914 22.0615 16.241 21.9557 16.4526 21.7441C16.6642 21.5326 16.77 21.2744 16.77 20.9697V18.8115C16.77 17.9144 16.4526 17.1484 15.8179 16.5137C15.1831 15.8789 14.4172 15.5615 13.52 15.5615H12.4536V13.2764C13.1984 13.1579 13.8882 12.9167 14.5229 12.5527C15.1577 12.1888 15.7121 11.7445 16.186 11.2197H17.8618C19.0636 11.2197 20.0877 10.7965 20.9341 9.9502C21.7804 9.10384 22.2036 8.07975 22.2036 6.87793V3.62793C22.2036 3.34017 22.0978 3.09049 21.8862 2.87891C21.6746 2.66732 21.4165 2.56152 21.1118 2.56152ZM4.86182 9.06152C4.26937 9.06152 3.76156 8.84993 3.33838 8.42676C2.9152 8.00358 2.70361 7.4873 2.70361 6.87793V4.71973H4.86182V6.87793C4.86182 7.26725 4.89567 7.64811 4.96338 8.02051C5.03109 8.3929 5.13265 8.74837 5.26807 9.08691L5.24268 9.06152H4.86182ZM13.52 17.7197C13.8247 17.7197 14.0828 17.8255 14.2944 18.0371C14.506 18.2487 14.6118 18.5068 14.6118 18.8115V19.8779H8.11182V18.8115C8.11182 18.5068 8.21761 18.2487 8.4292 18.0371C8.64079 17.8255 8.89893 17.7197 9.20361 17.7197H13.52ZM15.7036 6.87793C15.7036 8.07975 15.2804 9.10384 14.4341 9.9502C13.5877 10.7965 12.5636 11.2197 11.3618 11.2197C10.16 11.2197 9.13591 10.7965 8.28955 9.9502C7.4432 9.10384 7.02002 8.07975 7.02002 6.87793V2.56152H15.7036V6.87793ZM20.02 6.87793C20.02 7.4873 19.8084 8.00358 19.3853 8.42676C18.9621 8.84993 18.4543 9.06152 17.8618 9.06152H17.481C17.5994 8.73991 17.6925 8.3929 17.7603 8.02051C17.828 7.64811 17.8618 7.26725 17.8618 6.87793V4.71973H20.02V6.87793Z" fill="#5EB9F0"/>
</svg>
