<svg width="24" height="25" viewBox="0 0 24 25" fill="none" xmlns="http://www.w3.org/2000/svg">
<path d="M11.9297 11.9346C11.8984 11.8721 11.8633 11.8135 11.8242 11.7588C11.7852 11.7041 11.75 11.6533 11.7188 11.6064L6.70312 6.59082C6.60938 6.5127 6.50391 6.44629 6.38672 6.3916C6.26953 6.33691 6.14062 6.30957 6 6.30957C5.71875 6.30957 5.48047 6.40723 5.28516 6.60254C5.08984 6.79785 4.99219 7.03613 4.99219 7.31738C4.99219 7.45801 5.01953 7.58691 5.07422 7.7041C5.12891 7.82129 5.20312 7.92676 5.29688 8.02051L8.60156 11.3018H1.00781C0.726562 11.3018 0.488281 11.3994 0.292969 11.5947C0.0976563 11.79 0 12.0283 0 12.3096C0 12.5908 0.0976563 12.8291 0.292969 13.0244C0.488281 13.2197 0.726562 13.3174 1.00781 13.3174H8.60156L5.29688 16.5986C5.20312 16.6924 5.12891 16.7979 5.07422 16.915C5.01953 17.0322 4.99219 17.1611 4.99219 17.3018C4.99219 17.4424 5.01953 17.5752 5.07422 17.7002C5.12891 17.8252 5.20312 17.9346 5.29688 18.0283C5.39062 18.1064 5.49609 18.1729 5.61328 18.2275C5.73047 18.2822 5.85938 18.3096 6 18.3096C6.14062 18.3096 6.26953 18.2822 6.38672 18.2275C6.50391 18.1729 6.60938 18.1064 6.70312 18.0283L11.7188 13.0127C11.75 12.9658 11.7852 12.915 11.8242 12.8604C11.8633 12.8057 11.8906 12.7549 11.9062 12.708L11.9297 12.6846C11.9453 12.6377 11.9609 12.5791 11.9766 12.5088C11.9922 12.4385 12 12.3721 12 12.3096C12 12.2471 11.9922 12.1807 11.9766 12.1104C11.9609 12.04 11.9375 11.9814 11.9062 11.9346H11.9297Z" fill="white"/>
</svg>
